<svg width="247" height="155" viewBox="0 0 247 155" fill="none" xmlns="http://www.w3.org/2000/svg">
<path d="M43.968 83.88V129H31.424V110.888H16.128V129H3.584V83.88H16.128V100.84H31.424V83.88H43.968ZM49.0985 111.016C49.0985 107.304 49.7598 104.061 51.0825 101.288C52.4478 98.5147 54.2825 96.3813 56.5865 94.888C58.9332 93.3947 61.5358 92.648 64.3945 92.648C66.8692 92.648 69.0025 93.1387 70.7945 94.12C72.5865 95.1013 73.9732 96.424 74.9545 98.088V93.096H87.4985V129H74.9545V124.008C73.9732 125.672 72.5652 126.995 70.7305 127.976C68.9385 128.957 66.8265 129.448 64.3945 129.448C61.5358 129.448 58.9332 128.701 56.5865 127.208C54.2825 125.715 52.4478 123.581 51.0825 120.808C49.7598 117.992 49.0985 114.728 49.0985 111.016ZM74.9545 111.016C74.9545 108.712 74.3145 106.899 73.0345 105.576C71.7972 104.253 70.2612 103.592 68.4265 103.592C66.5492 103.592 64.9918 104.253 63.7545 105.576C62.5172 106.856 61.8985 108.669 61.8985 111.016C61.8985 113.32 62.5172 115.155 63.7545 116.52C64.9918 117.843 66.5492 118.504 68.4265 118.504C70.2612 118.504 71.7972 117.843 73.0345 116.52C74.3145 115.197 74.9545 113.363 74.9545 111.016ZM118.135 92.776C122.273 92.776 125.559 94.1627 127.991 96.936C130.423 99.6667 131.639 103.379 131.639 108.072V129H119.095V109.736C119.095 107.688 118.561 106.088 117.495 104.936C116.428 103.741 114.999 103.144 113.207 103.144C111.329 103.144 109.857 103.741 108.791 104.936C107.724 106.088 107.191 107.688 107.191 109.736V129H94.6465V93.096H107.191V98.216C108.3 96.5947 109.793 95.2933 111.671 94.312C113.548 93.288 115.703 92.776 118.135 92.776ZM136.474 111.016C136.474 107.304 137.135 104.061 138.458 101.288C139.823 98.5147 141.679 96.3813 144.026 94.888C146.372 93.3947 148.975 92.648 151.833 92.648C154.138 92.648 156.186 93.1387 157.978 94.12C159.812 95.0587 161.242 96.36 162.266 98.024V81.64H174.874V129H162.266V124.008C161.284 125.672 159.898 126.995 158.106 127.976C156.314 128.957 154.202 129.448 151.77 129.448C148.911 129.448 146.308 128.701 143.962 127.208C141.658 125.715 139.823 123.581 138.458 120.808C137.135 117.992 136.474 114.728 136.474 111.016ZM162.33 111.016C162.33 108.712 161.69 106.899 160.41 105.576C159.172 104.253 157.636 103.592 155.802 103.592C153.924 103.592 152.367 104.253 151.13 105.576C149.892 106.856 149.274 108.669 149.274 111.016C149.274 113.32 149.892 115.155 151.13 116.52C152.367 117.843 153.924 118.504 155.802 118.504C157.636 118.504 159.172 117.843 160.41 116.52C161.69 115.197 162.33 113.363 162.33 111.016ZM188.102 129.512C185.883 129.512 184.091 128.915 182.726 127.72C181.403 126.483 180.742 124.925 180.742 123.048C180.742 121.171 181.403 119.613 182.726 118.376C184.091 117.139 185.883 116.52 188.102 116.52C190.278 116.52 192.027 117.139 193.35 118.376C194.715 119.613 195.398 121.171 195.398 123.048C195.398 124.883 194.715 126.419 193.35 127.656C192.027 128.893 190.278 129.512 188.102 129.512Z" fill="white"/>
<path d="M20.608 70.448C15.36 70.448 11.0507 69.2107 7.68 66.736C4.30933 64.2187 2.496 60.6347 2.24 55.984H15.616C15.744 57.5627 16.2133 58.7147 17.024 59.44C17.8347 60.1653 18.88 60.528 20.16 60.528C21.312 60.528 22.2507 60.2507 22.976 59.696C23.744 59.0987 24.128 58.288 24.128 57.264C24.128 55.9413 23.5093 54.9173 22.272 54.192C21.0347 53.4667 19.0293 52.656 16.256 51.76C13.312 50.7787 10.9227 49.84 9.088 48.944C7.296 48.0053 5.71733 46.6613 4.352 44.912C3.02933 43.12 2.368 40.7947 2.368 37.936C2.368 35.0347 3.09333 32.56 4.544 30.512C5.99467 28.4213 8 26.8427 10.56 25.776C13.12 24.7093 16.0213 24.176 19.264 24.176C24.512 24.176 28.6933 25.4133 31.808 27.888C34.9653 30.32 36.6507 33.7547 36.864 38.192H23.232C23.1893 36.8267 22.7627 35.8027 21.952 35.12C21.184 34.4373 20.1813 34.096 18.944 34.096C18.0053 34.096 17.2373 34.3733 16.64 34.928C16.0427 35.4827 15.744 36.272 15.744 37.296C15.744 38.1493 16.064 38.896 16.704 39.536C17.3867 40.1333 18.2187 40.6667 19.2 41.136C20.1813 41.5627 21.632 42.1173 23.552 42.8C26.4107 43.7813 28.7573 44.7627 30.592 45.744C32.4693 46.6827 34.0693 48.0267 35.392 49.776C36.7573 51.4827 37.44 53.6587 37.44 56.304C37.44 58.992 36.7573 61.4027 35.392 63.536C34.0693 65.6693 32.128 67.3547 29.568 68.592C27.0507 69.8293 24.064 70.448 20.608 70.448ZM77.5755 51.632C77.5755 52.6133 77.5115 53.5947 77.3835 54.576H53.6395C53.7675 56.5387 54.3008 58.0107 55.2395 58.992C56.2208 59.9307 57.4582 60.4 58.9515 60.4C61.0422 60.4 62.5355 59.4613 63.4315 57.584H76.8075C76.2528 60.0587 75.1648 62.2773 73.5435 64.24C71.9648 66.16 69.9595 67.6747 67.5275 68.784C65.0955 69.8933 62.4075 70.448 59.4635 70.448C55.9222 70.448 52.7648 69.7013 49.9915 68.208C47.2608 66.7147 45.1062 64.5813 43.5275 61.808C41.9915 59.0347 41.2235 55.7707 41.2235 52.016C41.2235 48.2613 41.9915 45.0187 43.5275 42.288C45.0635 39.5147 47.1968 37.3813 49.9275 35.888C52.7008 34.3947 55.8795 33.648 59.4635 33.648C63.0048 33.648 66.1408 34.3733 68.8715 35.824C71.6022 37.2747 73.7355 39.3653 75.2715 42.096C76.8075 44.784 77.5755 47.9627 77.5755 51.632ZM64.7755 48.496C64.7755 46.96 64.2635 45.7653 63.2395 44.912C62.2155 44.016 60.9355 43.568 59.3995 43.568C57.8635 43.568 56.6048 43.9947 55.6235 44.848C54.6422 45.6587 54.0022 46.8747 53.7035 48.496H64.7755ZM80.661 52.016C80.661 48.304 81.429 45.0613 82.965 42.288C84.501 39.5147 86.6343 37.3813 89.365 35.888C92.1383 34.3947 95.2957 33.648 98.837 33.648C103.402 33.648 107.242 34.9067 110.357 37.424C113.472 39.8987 115.477 43.376 116.373 47.856H103.061C102.293 45.5093 100.8 44.336 98.581 44.336C97.0023 44.336 95.7437 44.9973 94.805 46.32C93.909 47.6 93.461 49.4987 93.461 52.016C93.461 54.5333 93.909 56.4533 94.805 57.776C95.7437 59.0987 97.0023 59.76 98.581 59.76C100.842 59.76 102.336 58.5867 103.061 56.24H116.373C115.477 60.6773 113.472 64.1547 110.357 66.672C107.242 69.1893 103.402 70.448 98.837 70.448C95.2957 70.448 92.1383 69.7013 89.365 68.208C86.6343 66.7147 84.501 64.5813 82.965 61.808C81.429 59.0347 80.661 55.7707 80.661 52.016ZM138.288 70.448C134.704 70.448 131.483 69.7013 128.624 68.208C125.808 66.7147 123.589 64.5813 121.968 61.808C120.347 59.0347 119.536 55.7707 119.536 52.016C119.536 48.304 120.347 45.0613 121.968 42.288C123.632 39.5147 125.872 37.3813 128.688 35.888C131.547 34.3947 134.768 33.648 138.352 33.648C141.936 33.648 145.136 34.3947 147.952 35.888C150.811 37.3813 153.051 39.5147 154.672 42.288C156.336 45.0613 157.168 48.304 157.168 52.016C157.168 55.728 156.336 58.992 154.672 61.808C153.051 64.5813 150.811 66.7147 147.952 68.208C145.093 69.7013 141.872 70.448 138.288 70.448ZM138.288 59.568C140.037 59.568 141.488 58.928 142.64 57.648C143.835 56.3253 144.432 54.448 144.432 52.016C144.432 49.584 143.835 47.728 142.64 46.448C141.488 45.168 140.059 44.528 138.352 44.528C136.645 44.528 135.216 45.168 134.064 46.448C132.912 47.728 132.336 49.584 132.336 52.016C132.336 54.4907 132.891 56.368 134 57.648C135.109 58.928 136.539 59.568 138.288 59.568ZM185.76 33.776C189.898 33.776 193.184 35.1627 195.616 37.936C198.048 40.6667 199.264 44.3787 199.264 49.072V70H186.72V50.736C186.72 48.688 186.186 47.088 185.12 45.936C184.053 44.7413 182.624 44.144 180.832 44.144C178.954 44.144 177.482 44.7413 176.416 45.936C175.349 47.088 174.816 48.688 174.816 50.736V70H162.272V34.096H174.816V39.216C175.925 37.5947 177.418 36.2933 179.296 35.312C181.173 34.288 183.328 33.776 185.76 33.776ZM204.099 52.016C204.099 48.304 204.76 45.0613 206.083 42.288C207.448 39.5147 209.304 37.3813 211.651 35.888C213.997 34.3947 216.6 33.648 219.458 33.648C221.763 33.648 223.811 34.1387 225.603 35.12C227.437 36.0587 228.867 37.36 229.891 39.024V22.64H242.499V70H229.891V65.008C228.909 66.672 227.523 67.9947 225.731 68.976C223.939 69.9573 221.827 70.448 219.395 70.448C216.536 70.448 213.933 69.7013 211.587 68.208C209.283 66.7147 207.448 64.5813 206.083 61.808C204.76 58.992 204.099 55.728 204.099 52.016ZM229.955 52.016C229.955 49.712 229.315 47.8987 228.035 46.576C226.797 45.2533 225.261 44.592 223.427 44.592C221.549 44.592 219.992 45.2533 218.755 46.576C217.517 47.856 216.899 49.6693 216.899 52.016C216.899 54.32 217.517 56.1547 218.755 57.52C219.992 58.8427 221.549 59.504 223.427 59.504C225.261 59.504 226.797 58.8427 228.035 57.52C229.315 56.1973 229.955 54.3627 229.955 52.016Z" fill="white"/>
</svg>
